<svg width="20" height="20" viewBox="0 0 20 20" fill="none" xmlns="http://www.w3.org/2000/svg">
<path d="M18.9456 6.72722H16.5237L15.891 2.95267C15.766 2.37512 15.4839 1.84332 15.0758 1.41596C14.6677 0.988604 14.1495 0.682301 13.5783 0.530854C13.0097 0.327767 12.4141 0.210124 11.811 0.181763H8.18919C7.59562 0.198149 7.0076 0.301051 6.44374 0.487217C5.86289 0.638544 5.33616 0.949831 4.92345 1.38568C4.51075 1.82152 4.22864 2.36444 4.10919 2.95267L3.47647 6.72722H0.923739C0.797097 6.73063 0.673035 6.76379 0.561587 6.82403C0.450138 6.88428 0.354433 6.9699 0.282211 7.07399C0.209989 7.17807 0.163277 7.29769 0.145854 7.42318C0.128431 7.54866 0.140787 7.67648 0.18192 7.79631L2.82192 18.0509C3.11647 19.0763 4.04374 19.7941 5.11283 19.8181H14.8874C15.4114 19.8105 15.9191 19.6346 16.3356 19.3164C16.752 18.9982 17.0551 18.5545 17.2001 18.0509L19.8183 7.79631C19.8646 7.66559 19.8765 7.52514 19.8527 7.3885C19.829 7.25186 19.7704 7.12364 19.6827 7.01621C19.595 6.90878 19.4811 6.82575 19.352 6.77513C19.2229 6.72451 19.0829 6.70801 18.9456 6.72722ZM5.13465 6.72722L5.72374 3.21449C5.78882 2.92776 5.93764 2.66683 6.1513 2.46482C6.36495 2.26282 6.63381 2.12886 6.92374 2.07994C7.32738 1.94904 7.7441 1.87704 8.16737 1.86176H11.811C12.2343 1.87704 12.651 1.94904 13.0546 2.07994C13.3446 2.12886 13.6134 2.26282 13.8271 2.46482C14.0407 2.66683 14.1896 2.92776 14.2546 3.21449L14.8656 6.72722H5.13465Z" fill="black"/>
</svg>
