<svg width="18" height="19" viewBox="0 0 18 19" fill="none" xmlns="http://www.w3.org/2000/svg">
    <path fill-rule="evenodd" clip-rule="evenodd"
        d="M6.02255 17.7307C4.30381 17.266 2.50435 17.0316 0.758754 16.8169C0.382779 16.7718 0.0337127 17.0231 0.0068574 17.377C-0.0468532 17.7312 0.221857 18.0552 0.570976 18.1002C2.26286 18.3069 4.0083 18.5282 5.64647 18.9755C5.99559 19.0725 6.37172 18.8728 6.47914 18.5292C6.58657 18.1858 6.37167 17.828 6.02255 17.7307Z"
        fill="#2B2B2B" />
    <path fill-rule="evenodd" clip-rule="evenodd"
        d="M11.2325 11.1425C8.46636 8.42293 5.35115 6.0534 2.63876 3.26085C2.39706 3.00004 1.96738 2.98607 1.69882 3.22954C1.43027 3.47327 1.40352 3.88311 1.67207 4.14392C4.38446 6.9445 7.49968 9.32178 10.2658 12.0494C10.5343 12.304 10.9639 12.3076 11.2325 12.0572C11.4742 11.807 11.501 11.3971 11.2325 11.1425Z"
        fill="#2B2B2B" />
    <path fill-rule="evenodd" clip-rule="evenodd"
        d="M16.4156 0.68197C16.4962 2.23854 16.5766 3.7951 16.6572 5.35192C16.6572 5.70846 16.9796 5.98376 17.3556 5.96643C17.7315 5.94883 17.9999 5.64533 17.9999 5.28853C17.9194 3.72938 17.839 2.17049 17.7584 0.611593C17.7315 0.255052 17.4092 -0.0184333 17.0332 0.000972033C16.6841 0.0203774 16.3888 0.325689 16.4156 0.68197Z"
        fill="#2B2B2B" />
</svg>